/* XPM */
static char *_34309e15a9f4ac0a16c94b7561497a0xWEOPRtpCo8uGEKK[] = {
/* columns rows colors chars-per-pixel */
"32 32 5 1 ",
"  c #EAE084",
". c #E4D677",
"X c #F4F4A1",
"o c #EEE991",
"O c white",
/* pixels */
"   ..   X          XX      ..   ",
"o ..  o    oX  o  o   .  X     o",
"         o X           o     oXX",
"  o XXo     o  XX ...       XX  ",
"   oo        .   ..  oX ..     o",
"       .   .. o     oX    o     ",
" X ...   X      Xo    o       . ",
"              XX        XX  ..  ",
"  o    o  o oXo    X  oXo     o ",
"    oXX     .   ..         o    ",
" oXXX  .  .       o ...     XX o",
"      ..   o  XXo  ..  o  XX    ",
"  .. oo  X       o          .   ",
"   oX      o .     oXX   o     X",
" o     o       o oXX  o .  X    ",
"          XX                 o  ",
"X ...  oXo    X    .  oXXo     o",
"     oXXo         .  oo      XXX",
" o         ..   oXXo     .. oo  ",
"   X  o . .    XXo     X        ",
"o   o  .   o        . o  o  ..  ",
"   .         .  o         ..    ",
" ..   X  oXX      ..   XX    X  ",
"        XX  o  X     XXo   o    ",
"oXX  XXo      .   o Xo   ..     ",
"X   o    o..                o  X",
"  ..  o ...  o oXo     XX o     ",
"..            XXo   X Xo     o  ",
"    XXo  o X Xo   o      X    . ",
"o XXo            .  o   o    XX ",
"       o    o        ..   o     ",
" o    .   o  .  X   oXX      .. "
};
