/* XPM */
static char *_90f4aba859c4f8193dd885e241a2442aBp0pFE9uS3tzF0H[] = {
/* columns rows colors chars-per-pixel */
"32 32 175 2 ",
"   c #070D1F",
".  c #090D1E",
"X  c #070E20",
"o  c #0A0D20",
"O  c #181225",
"+  c #281A27",
"@  c #25192A",
"#  c #281A29",
"$  c #3F2633",
"%  c #3F2832",
"&  c #4D2D1E",
"*  c #42262F",
"=  c #4D2C23",
"-  c #542E2D",
";  c #50312F",
":  c #422632",
">  c #432834",
",  c #4D2C34",
"<  c #512C34",
"1  c #5B2F36",
"2  c #5A2F38",
"3  c #5A3234",
"4  c #5C3438",
"5  c #563337",
"6  c #633636",
"7  c #683733",
"8  c #663936",
"9  c #6B3A36",
"0  c #65363A",
"q  c #68373A",
"w  c #66383A",
"e  c #6B3A39",
"r  c #713F37",
"t  c #733D3B",
"y  c #674039",
"u  c #694139",
"i  c #6D4334",
"p  c #714635",
"a  c #74423B",
"s  c #794537",
"d  c #623C42",
"f  c #713D41",
"g  c #81402A",
"h  c #884228",
"j  c #874522",
"k  c #874F38",
"l  c #854231",
"z  c #904933",
"x  c #885037",
"c  c #8C553E",
"v  c #8A5736",
"b  c #905B33",
"n  c #995B3B",
"m  c #955A38",
"M  c #BE5C22",
"N  c #B75B2C",
"B  c #B65F34",
"V  c #99623A",
"C  c #986234",
"Z  c #A66E35",
"A  c #AA6E33",
"S  c #B26B35",
"D  c #A87035",
"F  c #B47435",
"G  c #B5753A",
"H  c #B87639",
"J  c #F6761F",
"K  c #F9761D",
"L  c #C76327",
"P  c #CA6426",
"I  c #D97C2C",
"U  c #D57B3B",
"Y  c #D57D35",
"T  c #E16B25",
"R  c #E17E29",
"E  c #F67622",
"W  c #F87623",
"Q  c #F67B23",
"!  c #F97B23",
"~  c #936253",
"^  c #9B6252",
"/  c #9F705E",
"(  c #A16447",
")  c #AC725E",
"_  c #AE7351",
"`  c #B87E59",
"'  c #A57564",
"]  c #D97643",
"[  c #D67744",
"{  c #BF882E",
"}  c #BF8531",
"|  c #C1862E",
" . c #C88A2F",
".. c #DD812A",
"X. c #D48026",
"o. c #DF962F",
"O. c #C38532",
"+. c #C98731",
"@. c #C78933",
"#. c #C98A32",
"$. c #C2843C",
"%. c #D38F34",
"&. c #D48133",
"*. c #D79132",
"=. c #DC9233",
"-. c #D9943A",
";. c #EC872A",
":. c #F48325",
">. c #FA8327",
",. c #F9842A",
"<. c #E1942E",
"1. c #ED952F",
"2. c #F7942F",
"3. c #FD9F2E",
"4. c #E2833F",
"5. c #EF9735",
"6. c #E59634",
"7. c #F69230",
"8. c #FA9334",
"9. c #FB9F30",
"0. c #FBA02E",
"q. c #E2A33A",
"w. c #FCA031",
"e. c #FDAE35",
"r. c #FEAE38",
"t. c #F1A535",
"y. c #FBB034",
"u. c #FCB43A",
"i. c #FDBD3E",
"p. c #B48C47",
"a. c #B8964F",
"s. c #B6944D",
"d. c #B4845E",
"f. c #BA9451",
"g. c #B58360",
"h. c #AE8975",
"j. c #B58C72",
"k. c #DF8141",
"l. c #CB9744",
"z. c #D38E5B",
"x. c #CF905B",
"c. c #E28341",
"v. c #E69F4A",
"b. c #D3AD4C",
"n. c #DEBF5C",
"m. c #EFA343",
"M. c #F0A442",
"N. c #EEBC4B",
"B. c #F9B641",
"V. c #FEBD41",
"C. c #FDBD42",
"Z. c #F7BF48",
"A. c #C2856A",
"S. c #C18467",
"D. c #FDCB4B",
"F. c #EBCB57",
"G. c #EFD358",
"H. c #F3D155",
"J. c #FEDB55",
"K. c #F6D65D",
"L. c #F4D95D",
"P. c #FEE75E",
"I. c #FFE45F",
"U. c #FBE95F",
"Y. c #FEE85F",
"T. c #FFE762",
"R. c #FDE762",
"E. c #FDE861",
"W. c #FEE962",
"Q. c #CDA484",
"!. c #C7AC8F",
"~. c #CAAE8F",
"^. c #D1A485",
"/. c #CEAF90",
"(. c #EBD4AB",
/* pixels */
"o   @ t t G e.e.y.=.t t q q w q q q t t t w e.e.e.e.G t q +   X ",
"o . @ q q F y.V.u.-.q q 8 q w 8 q q t q q q e.u.V.e.F q 8 # o X ",
". o O * > Z V.E.N.%.: $ : : $ : : : q , : : y.N.U.r.Z : : O . o ",
"| O. ., 1 p.H.E.L.b.3 e q 1 3 8 q e r t e 2 F.L.P.F.p.3 , @.O.{ ",
"e.r.e.t t f.E.T.E.n.t t t t t t a t t t t t T.U.T.P.s.t t e.e.e.",
"e.e.e.t t f.T.E.P.n.r t t t t t t f t t t t U.T.T.U.a.t t e.e.e.",
"e.e.e.t t $.C.V.V.q.t t t t t t t t t t t t i.i.C.V.$.t t y.e.e.",
"e.e.e.: , A r.r.e.%., , 6 e , , , , , , , , e.e.e.e.Z , % y.e.e.",
"e.e.e.* , D e.e.y.%.: : 4 q $ : , , , , , < e.e.e.e.A < : e.e.e.",
"e.e.e.t t H e.e.e.-.t t t t t t t t t t t t y.e.e.r.F t t e.e.e.",
"e.e.e.t t &.e.e.1.I t t t t t t t t t t t t :.1.e.>.B t t e.e.r.",
"r.e.e., , S 3.6.;.N q , < < < 5 0 t t a e , T ;.5.E l , 1 y.i.D.",
"y.e.e.* : ; W E W z t : : : : : , 7 w q 5 * P E W E - : : e.D.P.",
"e.e.e.: $ - W E W g : : : : : : : : : : : : L E W E - : : e.D.E.",
"e.e.e.#.#.%.<.6.o.*. .+.#.@.@.#.#.#.@.@.#.#.=.o.=.<.%.-.G.J.I.U.",
"e.e.e.e.r.e.y.e.e.e.e.e.e.e.e.e.e.e.e.r.r.e.e.e.e.e.e.V.E.T.R.E.",
"E W K E W W K W W E E W W W E E E E W E E W W W W E E W J W W J ",
"& ] [ ] > : : : * : : : : % 9.w.w.0.: : : : $ : : : * : ] [ U = ",
"j Y c.c., , , , , , : , , 3 e.e.e.e.5 , , : , , , < , , 4.k.U h ",
"E ..e.y.: < t t e e : q t n M.B.B.m.n t q : w 9 t t 4 : e.y...W ",
"E R e.y.: , t t t e : w t ( A.K.K.A.( t q : 8 t t t 0 : e.e.R E ",
"E ..e.e.3 0 t t t q : w t c u l.l.y c t e 5 e t t t 6 : e.e.I W ",
"M X.e.e.t t t t t 1 : q ' j.: d.g.: j.~ t 3 e t t t 0 , e.y.I M ",
". O.e.e.t t t t t 3 * q ~.(.: !.!.* (.h.t : q t t t t t e.e.| . ",
"X } e.e.: 6 t t t e w e /.(.(.(.(.(.(.h.t : w t t t t t e.e.O.. ",
"o | e.e.: 4 t t t 0 < q j.Q.Q.Q.Q.^.Q./ q : q t t t 6 , e.e.| . ",
"X O.e.e.: q t t t 1 > 8 ) A.A.' ) S.A.^ w : q t t t 6 : e.r.| . ",
". O.y.r.: 0 t t e 3 : 8 ) A.A.d d A.A.^ q : q t t t 6 : e.e.O.o ",
"O.t.r.e.p s x V V x i b ` A.A.~ ~ A.A._ b i b C m k s p e.e.Z.H.",
"r.e.e.e.e.e.y.e.e.y.e.r.v.x.x.z.z.x.z.v.u.D.u.V.D.D.V.u.D.D.J.E.",
"e.e.e.e.e.y.e.e.e.r.e.e.e.e.e.e.e.e.e.e.V.E.V.D.E.U.D.C.R.U.E.T.",
"W W E W E E W W E ! >.:.! W E W W E E E ! 8.Q ,.8.8.,.Q 8.8.7.2."
};
