/* XPM */
static char *d315350433e24a55b5c9d39c62a6300aqyRm0y0GbWtKKicr[] = {
/* columns rows colors chars-per-pixel */
"32 32 173 2 ",
"   c #020201",
".  c #090503",
"X  c #060807",
"o  c #0B0906",
"O  c #000609",
"+  c #090708",
"@  c #04090B",
"#  c #0C0C0B",
"$  c #130602",
"%  c #110A04",
"&  c #130D0B",
"*  c #141206",
"=  c #12100C",
"-  c #1C1B0D",
";  c #080D10",
":  c #0F1212",
">  c #141517",
",  c #270200",
"<  c #361109",
"1  c #282515",
"2  c #2C2915",
"3  c #3A2B14",
"4  c #302E1A",
"5  c #38351B",
"6  c #232527",
"7  c #242829",
"8  c #2C2C2B",
"9  c #332C25",
"0  c #352D2A",
"q  c #35322D",
"w  c #39332C",
"e  c #2F3437",
"r  c #3F3C37",
"t  c #4E371D",
"y  c #443F21",
"u  c #473E2F",
"i  c #583829",
"p  c #433B30",
"a  c #453A38",
"s  c #4E3C38",
"d  c #533A35",
"f  c #524D2A",
"g  c #55512C",
"h  c #5D562F",
"j  c #4E4234",
"k  c #45423C",
"l  c #4D463D",
"z  c #584735",
"x  c #5D5634",
"c  c #61443E",
"v  c #6C483E",
"b  c #665E34",
"n  c #6C6439",
"m  c #474541",
"M  c #4D4844",
"N  c #464A4C",
"B  c #4B4C4C",
"V  c #5F4B42",
"C  c #5E4C48",
"Z  c #50514C",
"A  c #4B4F51",
"S  c #4C5053",
"D  c #4F575A",
"F  c #505252",
"G  c #565857",
"H  c #585C5E",
"J  c #684740",
"K  c #634C44",
"L  c #684B42",
"P  c #644F49",
"I  c #724A40",
"U  c #6B5344",
"Y  c #655149",
"T  c #6D5E4D",
"R  c #715E48",
"E  c #5C605F",
"W  c #786648",
"Q  c #595E61",
"!  c #5C6163",
"~  c #606261",
"^  c #666A6B",
"/  c #757168",
"(  c #787169",
")  c #807A46",
"_  c #81774F",
"`  c #857A4D",
"'  c #877766",
"]  c #82776C",
"[  c #937A75",
"{  c #89834B",
"}  c #898858",
"|  c #938454",
" . c #938B52",
".. c #91855A",
"X. c #988C5B",
"o. c #9D9452",
"O. c #9C915D",
"+. c #9F9858",
"@. c #A19A59",
"#. c #A89F5E",
"$. c #A8A05D",
"%. c #928B60",
"&. c #9E9C65",
"*. c #9C9768",
"=. c #91897E",
"-. c #A29661",
";. c #AFA561",
":. c #ADA56D",
">. c #B3A662",
",. c #B2AA63",
"<. c #BCAF67",
"1. c #BAB167",
"2. c #BFB66D",
"3. c #C5B867",
"4. c #C5BC6E",
"5. c #C0B670",
"6. c #C8BE73",
"7. c #D3C66E",
"8. c #CDC374",
"9. c #C2C27F",
"0. c #D0C775",
"q. c #D6CD78",
"w. c #D8CE7B",
"e. c #DED074",
"r. c #DCD37C",
"t. c #E4D677",
"y. c #E1D77F",
"u. c #999087",
"i. c #B1A99E",
"p. c #BFAD99",
"a. c #ABAAA6",
"s. c #BEB2A2",
"d. c #B6B3AE",
"f. c #CAA295",
"g. c #CFAE96",
"h. c #C8A39A",
"j. c #C3AC9C",
"k. c #CDB29D",
"l. c #D0B393",
"z. c #D4BA94",
"x. c #D6BE99",
"c. c #DBB4A6",
"v. c #DFBDA8",
"b. c #E3B9AB",
"n. c #E6BCB0",
"m. c #DDD887",
"M. c #D0D088",
"N. c #D5C194",
"B. c #DAC895",
"V. c #D5C098",
"C. c #DDC29B",
"Z. c #E6DC82",
"A. c #E9DF84",
"S. c #EAE084",
"D. c #EAE58F",
"F. c #E5E597",
"G. c #EEE991",
"H. c #E7E798",
"J. c #EBEA9B",
"K. c #DFC1A4",
"L. c #C5C1BE",
"P. c #D2C6B8",
"I. c #D9C9B9",
"U. c #E2C4A6",
"Y. c #E6C0A8",
"T. c #E8CFA9",
"R. c #F4F4A1",
"E. c #C8C4C1",
"W. c #CFCCC7",
"Q. c #D5CEC4",
"!. c #D8CEC2",
"~. c #DCD1C3",
"^. c #D4D1CA",
/* pixels */
"S.S.S.t.t.S.S.S.R.S.S.S.S.S.S.S.S.S.S.R.R.S.S.S.S.S.S.t.t.S.S.S.",
"G.S.t.t.S.S.G.S.S.S.S.G.R.S.S.G.S.S.G.S.S.S.t.S.S.R.S.S.S.S.S.G.",
"S.S.S.S.S.S.S.S.S.G.S.R.S.S.S.S.S.S.S.S.S.S.S.G.S.S.S.S.S.G.R.R.",
"S.S.G.S.R.R.G.S.S.S.S.S.G.S.S.R.J.r.t.t.t.S.S.S.S.S.S.S.R.R.S.S.",
"S.S.S.G.G.S.S.S.S.S.S.S.Z.t.Z. .n >.o.S.S.G.R.S.t.t.S.S.S.S.S.G.",
"S.S.S.S.S.S.S.t.S.S.S.e.3.8.:.` ` O. . .G.R.S.S.S.S.G.S.S.S.S.S.",
"S.R.S.t.t.t.S.S.S.R.,.w.T K K K P Y -.r.S.S.G.S.S.S.S.S.S.S.t.S.",
"S.S.S.S.S.S.S.S.S.8.r.6.V ..W L L c P 5.S.S.S.S.R.R.S.S.t.t.S.S.",
"S.S.G.S.S.S.S.G.r.4.m.P R _ W v i J K K S.S.G.R.G.S.S.S.S.S.G.S.",
"S.S.S.S.G.R.R.S.0.8.2.z L x.i v h.v U P S.S.S.S.S.S.S.G.S.S.S.S.",
"S.G.R.R.R.S.S.t.y.4. .K B.z.z.I g.x.U X.t.t.e.S.S.S.S.S.R.R.S.G.",
"S.S.S.S.S.S.t.t.g $ Y U N.3 T.f.U., N.z <.A.4.G.S.S.R.R.S.S.S.S.",
"S.S.t.t.S.G.G.S.o a C [ k.t C.n.U.< V.[ O.) $.S.S.S.S.S.t.S.S.S.",
"S.S.S.G.R.S.S.S.{ & s d k.c.b.b.c.K.V.X.*.} S.S.S.G.S.S.S.S.S.R.",
"S.G.S.S.S.S.S.G.S. .$ W | l.Y.c.v.C...%.x 1.G.S.t.S.S.R.S.S.S.S.",
"S.S.S.S.S.S.S.S.S.S.. &.>.h z.f.z.b | b y S.S.S.S.S.S.S.S.G.S.S.",
"R.S.t.t.t.S.S.G.R.D.$ z ' ;.j.j.p.#.' n f S.G.R.R.G.S.S.S.S.S.G.",
"S.S.S.S.S.G.R.R.G.. % 9 ] j I.~.s.u ] x 2 2 G.S.S.S.S.S.S.R.R.R.",
"S.G.S.S.S.S.S.S.Z.  0 w =.j ~.P.!.p u.0 9 & r.S.S.t.t.S.G.G.S.S.",
"S.S.S.R.S.S.G.S.  & M 9 ( l i.~.Q.l / 9 k . * R.S.S.S.S.S.S.S.S.",
"G.S.S.S.G.S.S.{ . m r o w k ^.d.W.m q o m m * ,.S.G.S.S.t.t.S.S.",
"S.S.S.t.S.S.S.  & L.d.. 8 8 Z m B 8 8 = a.E.1 h S.S.t.t.S.S.S.S.",
"S.t.t.S.S.S.R.S.  o + # B ~ ^ H ! E G   + # 5 R.R.S.S.S.S.R.S.S.",
"S.S.S.S.S.S.S.S.R.F.n + F H ! A ! ! N :   H.R.G.S.S.S.G.S.S.S.S.",
"G.R.R.S.S.R.R.G.S.S.0.# A Q D @ S ! S # M.G.S.S.S.t.t.S.S.S.S.S.",
"R.S.S.S.G.S.S.S.S.G.7.1 B N O O @ A N X r.S.S.S.S.S.S.S.G.S.S.R.",
"S.S.t.t.S.S.G.S.t.t.o.X 7 e ; G.X 8 8 # @.S.S.R.R.S.G.S.S.S.S.S.",
"t.t.S.S.S.S.S.S.A.@.# F B 6 : 9.> 6 B B # o.F.G.S.S.S.S.S.G.S.S.",
"S.S.S.S.R.R.G.r.@.# + + + #   + + + o = - 4     S.R.S.S.S.S.t.S.",
"G.S.R.R.G.S.S.4.) + #   # = {  .g & + + - 4     G.S.S.S.S.R.R.S.",
"S.S.S.S.S.S.S.G.        { 0.r.r.q.4.+.g 1     S.S.S.G.S.S.S.S.S.",
"S.G.S.S.S.S.t.S.S.S.G.S.S.t.S.S.R.S.S.S.G.R.R.S.S.S.S.S.S.t.t.S."
};
