/* XPM */
static char * key_xpm[] = {
"32 32 5 1",
" 	c #EAE084",
".	c #E4D677",
"+	c #F4F4A1",
"@	c #EEE991",
"#	c #000000",
"   ..   +          ++      ..   ",
"@ ..  @    @+  @  @   .  +     @",
"         @ +           @     @++",
"  @ ++@     @  ++ ...       ++  ",
"   @@        .   ..  @+ ..     @",
"       .   .. @     @+    @     ",
" + ...   +      +@    @       . ",
"              ++        ++  ..  ",
"  @    @  @ @+@    +  @+@     @ ",
"    @++     .   .###       @    ",
" @+++  .  .     #...#..     ++ @",
"      ..   @  +#.#+..# @  ++    ",
"  .. @@  +     #+..#.#      .   ",
"   @+      @ . #+###.#   @     +",
" @     @       #+++.# @ .  +    ",
"          ++  #+.###         @  ",
"+ ...  @+@   #+.#  .  @++@     @",
"     @++@   #..#  .  @@      +++",
" @         #.## @++@     .. @@  ",
"   +  @ . #.#..#+@     +        ",
"@   @  .  #.#.++#   . @  @  ..  ",
"   .       ###+#@         ..    ",
" ..   +  @++ ##   ..   ++    +  ",
"        ++  @  +     ++@   @    ",
"@++  ++@      .   @ +@   ..     ",
"+   @    @..                @  +",
"  ..  @ ...  @ @+@     ++ @     ",
"..            ++@   + +@     @  ",
"    ++@  @ + +@   @      +    . ",
"@ ++@            .  @   @    ++ ",
"       @    @        ..   @     ",
" @    .   @  .  +   @++      .. "};
