/* XPM */
static char *_88d3791ac7f4f5ae49fc469e1e101d3r3rRtYPUjnRmEdor[] = {
/* columns rows colors chars-per-pixel */
"32 32 80 1 ",
"  c #88AB1D",
". c #90B41F",
"X c #8DAE22",
"o c #93B523",
"O c #96BC20",
"+ c #9ABE24",
"@ c #92B128",
"# c #9DBD2A",
"$ c #A0BF2B",
"% c #A2BC34",
"& c #A3B838",
"* c #9EC02B",
"= c #A0C42D",
"- c #A5C92E",
"; c #A6C333",
": c #A9C536",
"> c #A7CA30",
", c #A9CA34",
"< c #ACC43C",
"1 c #ACCA3A",
"2 c #B0C73F",
"3 c #B1CC3C",
"4 c #AEC341",
"5 c #AFCC41",
"6 c #B3C445",
"7 c #B4CB44",
"8 c #B4C648",
"9 c #B6CC4C",
"0 c #BACB4C",
"q c #BDCE52",
"w c #C3CA53",
"e c #C4CE5A",
"r c #CDCE5E",
"t c #C4D157",
"y c #C4D45C",
"u c #CAD15D",
"i c #CBCF64",
"p c #CDD462",
"a c #CCDB6C",
"s c #D1D566",
"d c #D3D867",
"f c #D5D66B",
"g c #D9D26A",
"h c #D5D96C",
"j c #D8D86E",
"k c #CEDC70",
"l c #D1D770",
"z c #DED470",
"x c #D5DB72",
"c c #DCDA74",
"v c #DEDA78",
"b c #DBDE7A",
"n c #E0D573",
"m c #E3D676",
"M c #E4D677",
"N c #E1DC79",
"B c #E3DC7C",
"V c #E4DD7D",
"C c #D6E375",
"Z c #D8E37B",
"A c #DFE17E",
"S c #E0E27F",
"D c #E6DF80",
"F c #E8DF81",
"G c #DCE481",
"H c #E1E281",
"J c #E6E587",
"K c #E9E083",
"L c #EAE084",
"P c #E1E987",
"I c #EAE78B",
"U c #EAE78D",
"Y c #E5EB8C",
"T c #ECE88E",
"R c #EEE991",
"E c #EAEE93",
"W c #ECEF96",
"Q c #EDF098",
"! c #F2F29E",
"~ c #F4F4A1",
/* pixels */
"O.OO.OO-OO..OO.OO O.OOOO=OOOOOO.",
"OO..O.OO=O-OOOOO.OO.O OO.-O-O..O",
"...OO.O.OOO O.O-OOo+O.OO.OOO.OO.",
".OO=OO.O O. O.O=Oo36#O.OOO.O O-O",
"O-=OO.OO+;o+#OOOo#wc1-O.O ..O.=-",
"O-OOO.O>3c;#u=++=6Np*5O-O .O OO=",
"OOO. Oo+1Cf,ci%<ylDq7f1ooOOOoOO.",
"O OO o:o=pBhccykcNF0uj=<7oOOO..O",
".O.O.O=y6jUVSQbvDFFQF%*Gy,OO-OO.",
"O.O.=>=fFLKDnVDFMMLDc+sc7O-..OOO",
". .OO17wDFmLKKLLLLRDgrme;#O**..O",
". OOO;:1pNFRLL~~RLKzrqjx0eZqX.OO",
"O..Oo0e0c!LLLLLLLRKNhuDFDj<#OOOO",
"O.OOo=ccVKLRLMLLLLKIYENNc9oOO-O.",
"OO-OO>=TFLLLLLLRLR~!VBAt:-OO-=OO",
".OO,0csLLL~~LLLLLLLLFDDNj0-O=OO.",
"O.Oo<pNT~RLLLL~LLLLMLLR!P<=O.O O",
"O.OOO@aWRLLLLLLLLLmKKRhss<#OO.OO",
"OOO-O#:cDKLMMLLLR!QJVDp;%06oOOO ",
"O-=OO<HVmVmLLLL~!Hhdhcty7o@oO=OO",
"-=OO.#7&;@0IKLLFNs0twh%+oO OOO-O",
"=OOOOO#%2pcBFmDNAu6ccju%+oO..O=O",
"O.O.OO-O+#:aVDNsup$6cVj5@.OO OO.",
".OOO.O=O114;Hcs978#.7yy=OOOOO.OO",
"O O .OOooO+&e0+;+:;O+,#oOO-OOO.O",
"OO. OO.OO.O#;#OOoXoOOO=-O-=OO. O",
"O.OOOOOO.O-OOOOOoOOO..O=O=..OOO.",
"OO=OO-O-O.=-OO-OOOO.O OOO..OO.OO",
"O-.OO=-OO.O=O-..O-OOOOOO.O OO-O.",
"-=OO.O=...OO.OO OO=-OO-OOO .OO-O",
"=O.OOO.OO OOOO.O.OO=O-OO .OO.O=O",
"OOO.O..O.OO-O..O.O.O.O..OO.OO..O"
};
