/* XPM */
static char *_79034e68c5545c189e8dd1580ab15dcGdO2JHfndxMz2O5i[] = {
/* columns rows colors chars-per-pixel */
"32 32 30 1 ",
"  c black",
". c #342A25",
"X c #3C312C",
"o c #7A2D18",
"O c #512D23",
"+ c #5B3C2C",
"@ c #453A35",
"# c #4A413C",
"$ c #5A5237",
"% c #60583C",
"& c #645C3F",
"* c #695D58",
"= c #5E724A",
"- c #677755",
"; c #6A7A5A",
": c #70805F",
"> c #778667",
", c #8DAB5F",
"< c #A8A05D",
"1 c #ABA767",
"2 c #AFAF72",
"3 c #A2A97F",
"4 c #C1B564",
"5 c #C6BE6F",
"6 c #CAC67A",
"7 c #E4D677",
"8 c #BEC49F",
"9 c #EAE084",
"0 c #EEE991",
"q c #F4F4A1",
/* pixels */
"99977999q9999999999qq99999977999",
"097799099990q990990999799q999990",
"99999999909q9     999990999990qq",
"9909qq099999 +OOOO 779999999qq99",
"99900999999 +=+OO+= 90q977999990",
"9999999799 O+=+O+=== q9999099999",
"9q9777999q O+=++-=== 90999999979",
"9999999999 +=-+::-== 999qq997799",
"9909999099 =-:+:::-= 90q09999909",
"99990qq999 -  :+:  - 99999909999",
"90qqq99799 -8,:+:,8- 7799999qq90",
"9999997799 :::::+::: 99099qq9999",
"997790099q =:::::+:= 99999997999",
"9990q999999 =3:3:3+ qq999099999q",
"9099999099 @X=3o3oX@ 909799q9999",
"999999999 @@XX=ooXX@@ 9999999099",
"q9777990q O@XXXXXXX@@ 0qq0999990",
"999990qq0 OOXXXXXXX@@ 0999999qqq",
"909999999 >O.XXoX:.@@ 9997790099",
"999q99097 @> ...;; @@ 9q99999999",
"099909979 @@ ...;. @@ 0990997799",
"9997999999 @@.....@@  9999779999",
"977999q990 @@%&&&%@@ 99qq9999q99",
"99999999qq >>%&$&%>> qq099909999",
"0qq99qq0999 %&$ $&% q09997799999",
"q9990999907 && 9 && 99999999099q",
"99779909777 ## 0 ;; 999qq9099999",
"7799999999 **# q ;:: 9q099999099",
"9999qq0996<2<215<<1<<5999q999979",
"09qq0999995555555455699909999qq9",
"99999990999909999999977999099999",
"9099997999099799q9990qq999999779"
};
